<svg width="30px" height="34px" viewBox="0 0 30 34" version="1.1" xmlns="http://www.w3.org/2000/svg" xmlns:xlink="http://www.w3.org/1999/xlink">
    <g>
        <path d="M15.0133166,34 L14.7150211,33.8613333 C14.5658734,33.7946662 0,26.8186662 0,6.02400011 L0,5.47466644 L0.535333636,5.35733311 C5.58238636,4.24799979 8.56267773,2.67733331 10.7386364,1.53066699 C12.4298652,0.64266649 13.6496802,0 15,0 C16.3503198,0 17.5701348,0.64266649 19.2613636,1.53066699 C21.4373223,2.67733331 24.4176136,4.24799979 29.4646664,5.35733311 L30,5.47466644 L30,6.02400011 C30,26.1280001 15.4554334,33.7733328 15.3089489,33.8506667 L15.0133166,34 Z" fill="#50E3C2" fill-rule="nonzero"></path>
        <path d="M15,33.9938096 L15,-7.10542736e-15 C16.3503198,1.65989369e-15 17.5701348,0.64266649 19.2613636,1.53066699 C21.4373223,2.67733331 24.4176136,4.24799979 29.4646664,5.35733311 L30,5.47466644 L30,6.02400011 C30,26.1280001 15.4554334,33.7733328 15.3089489,33.8506667 L15.0133166,34 L15,33.9938096 Z" fill="#3ACBAA" fill-rule="nonzero"></path>
        <polygon fill="#F8FAFA" points="7 11 23 11 23 13 7 13"></polygon>
    </g>
</svg>