<svg id="Group-2" xmlns="http://www.w3.org/2000/svg" width="30" height="34" viewBox="0 0 30 34">
  <path id="Shape" d="M15.013,34l-.3-.139C14.566,33.795,0,26.819,0,6.024V5.475l.535-.117a36.869,36.869,0,0,0,10.2-3.827C12.43.643,13.65,0,15,0s2.57.643,4.261,1.531a36.869,36.869,0,0,0,10.2,3.827L30,5.475v.549c0,20.1-14.545,27.749-14.691,27.827Z" fill="#50e3c2"/>
  <path id="Combined-Shape" d="M15,33.994V0c1.35,0,2.57.643,4.261,1.531a36.869,36.869,0,0,0,10.2,3.827L30,5.475v.549c0,20.1-14.545,27.749-14.691,27.827l-.3.149Z" fill="#3acbaa"/>
  <path id="Rectangle-3" d="M7,11H23v2H7Z" fill="#f8fafa"/>
</svg>
