<svg id="Group-2" xmlns="http://www.w3.org/2000/svg" width="100" height="113.333" viewBox="0 0 100 113.333">
  <path id="Shape" d="M50.044,113.333l-.994-.462C48.553,112.649,0,89.4,0,20.08V18.249l1.784-.391A122.9,122.9,0,0,0,35.8,5.1C41.433,2.142,45.5,0,50,0s8.567,2.142,14.2,5.1A122.9,122.9,0,0,0,98.216,17.858l1.784.391V20.08c0,67.013-48.482,92.5-48.97,92.756Z" transform="translate(0 0)" fill="#50e3c2"/>
  <path id="Combined-Shape" d="M15,113.313V0c4.5,0,8.567,2.142,14.2,5.1A122.9,122.9,0,0,0,63.216,17.858L65,18.249V20.08c0,67.013-48.482,92.5-48.97,92.756l-.985.5Z" transform="translate(35)" fill="#3acbaa"/>
  <path id="Rectangle-3" d="M7,11H60.333v6.667H7Z" transform="translate(16.333 25.667)" fill="#f8fafa"/>
</svg>
