<svg width="161px" height="24px" viewBox="0 0 161 24" version="1.1" xmlns="http://www.w3.org/2000/svg" xmlns:xlink="http://www.w3.org/1999/xlink">
    <g id="Group" transform="translate(26.833333, 1.411765)" fill="#146586">
        <path d="M6.51199187,17.3777376 C2.91567073,17.3777376 0.25851626,14.5726697 0.25851626,11.1518552 L0.25851626,11.1062443 C0.25851626,7.68542986 2.91567073,4.8119457 6.55780488,4.8119457 C8.45904472,4.8119457 9.76471545,5.42769231 10.7955081,6.31710407 C10.9787602,6.47674208 11.2307317,6.81882353 11.2307317,7.27493213 C11.2307317,7.98190045 10.6580691,8.52923077 9.94796748,8.52923077 C9.60436992,8.52923077 9.30658537,8.39239819 9.12333333,8.25556561 C8.41323171,7.66262443 7.63441057,7.22932127 6.53489837,7.22932127 C4.51912602,7.22932127 3.03020325,8.96253394 3.03020325,11.0606335 L3.03020325,11.1062443 C3.03020325,13.2499548 4.51912602,14.960362 6.64943089,14.960362 C7.74894309,14.960362 8.59648374,14.5270588 9.35239837,13.8885068 C9.5127439,13.7516742 9.78762195,13.5920362 10.108313,13.5920362 C10.7726016,13.5920362 11.2994512,14.1393665 11.2994512,14.800724 C11.2994512,15.1656109 11.1620122,15.4620814 10.9100407,15.6673303 C9.83343496,16.6935747 8.52776423,17.3777376 6.51199187,17.3777376 Z M15.5011585,20.8213575 C14.7223374,20.8213575 14.1496748,20.7073303 13.5770122,20.479276 C13.1646951,20.3424434 12.706565,20.000362 12.706565,19.3390045 C12.706565,18.6548416 13.2334146,18.198733 13.8289837,18.198733 C14.0580488,18.198733 14.1954878,18.2443439 14.3329268,18.2899548 C14.6536179,18.3811765 14.9055894,18.4495928 15.295,18.4495928 C16.1196341,18.4495928 16.5548577,18.1075113 17.0129878,17.1724887 L17.1046138,16.921629 L12.614939,6.93285068 C12.523313,6.72760181 12.4545935,6.45393665 12.4545935,6.27149321 C12.4545935,5.4961086 13.0501626,4.92597285 13.8289837,4.92597285 C14.5390854,4.92597285 14.9284959,5.33647059 15.1804675,5.97502262 L18.433191,13.9797285 L21.4568496,5.97502262 C21.6859146,5.40488688 22.0753252,4.92597285 22.7854268,4.92597285 C23.5184349,4.92597285 24.1140041,5.4961086 24.1140041,6.22588235 C24.1140041,6.45393665 24.0452845,6.75040724 23.9994715,6.88723982 L19.5785163,17.4461538 C18.5477236,19.9091403 17.4482114,20.8213575 15.5011585,20.8213575 Z M26.0937805,15.8497738 L26.0937805,1.71040724 C26.0937805,0.935022624 26.6893496,0.342081448 27.4681707,0.342081448 C28.2469919,0.342081448 28.8654675,0.935022624 28.8654675,1.71040724 L28.8654675,7.06968326 C29.7588211,5.81538462 31.0186788,4.8119457 32.9886382,4.8119457 C35.8290447,4.8119457 38.6007317,7.04687783 38.6007317,11.0606335 L38.6007317,11.1062443 C38.6007317,15.0971946 35.8519512,17.3549321 32.9886382,17.3549321 C30.9728658,17.3549321 29.7130081,16.3514932 28.8654675,15.2340271 L28.8654675,15.8497738 C28.8654675,16.6023529 28.2469919,17.2180995 27.4681707,17.2180995 C26.7122561,17.2180995 26.0937805,16.6023529 26.0937805,15.8497738 Z M32.3243496,14.960362 C34.2255894,14.960362 35.7832317,13.478009 35.7832317,11.1062443 L35.7832317,11.0606335 C35.7832317,8.73447964 34.2026829,7.20651584 32.3243496,7.20651584 C30.4460162,7.20651584 28.7967479,8.75728507 28.7967479,11.0606335 L28.7967479,11.1062443 C28.7967479,13.4095928 30.4460162,14.960362 32.3243496,14.960362 Z M42.894065,10.239638 L49.1017276,10.239638 C48.9184756,8.46081448 47.8647764,7.06968326 46.0322561,7.06968326 C44.3371748,7.06968326 43.1460366,8.36959276 42.894065,10.239638 Z M50.7051829,15.7813575 C49.6056707,16.761991 48.2312805,17.3777376 46.3529471,17.3777376 C42.848252,17.3777376 40.1452845,14.8463348 40.1452845,11.1290498 L40.1452845,11.0834389 C40.1452845,7.639819 42.5962805,4.8119457 46.0551626,4.8119457 C49.9034553,4.8119457 51.8046951,7.95909502 51.8046951,10.7413575 C51.8046951,11.5167421 51.209126,12.0640724 50.4990244,12.0640724 L42.9169715,12.0640724 C43.2147561,14.0253394 44.6120528,15.12 46.3987601,15.12 C47.5669918,15.12 48.483252,14.7095023 49.2620731,14.0709502 C49.4682317,13.9113122 49.6514837,13.8200905 49.9721748,13.8200905 C50.5906504,13.8200905 51.071687,14.2990045 51.071687,14.9375566 C51.071687,15.279638 50.9113414,15.5761086 50.7051829,15.7813575 Z M53.99063,15.8497738 L53.99063,6.31710407 C53.99063,5.54171946 54.5861991,4.92597285 55.3650203,4.92597285 C56.1438414,4.92597285 56.762317,5.54171946 56.762317,6.31710407 L56.762317,7.54859729 C57.4036991,6.04343891 58.5948374,4.90316742 59.8088821,4.90316742 C60.6793292,4.90316742 61.1832723,5.47330317 61.1832723,6.27149321 C61.1832723,7.00126697 60.7022357,7.480181 60.0837601,7.59420814 C58.1138008,7.93628959 56.762317,9.44144796 56.762317,12.2921267 L56.762317,15.8497738 C56.762317,16.6023529 56.1438414,17.2180995 55.3650203,17.2180995 C54.6091057,17.2180995 53.99063,16.6251584 53.99063,15.8497738 Z M63.1859552,16.3286878 L63.1859552,6.08904977 C63.1859552,5.61013575 63.5753658,5.19963801 64.0564024,5.19963801 C64.5603455,5.19963801 64.949756,5.58733032 64.949756,6.08904977 L64.949756,16.3286878 C64.949756,16.8304072 64.583252,17.2180995 64.0793089,17.2180995 C63.5753658,17.2180995 63.1859552,16.8304072 63.1859552,16.3286878 Z M68.3955487,16.3286878 L68.3955487,6.08904977 C68.3955487,5.61013575 68.7849593,5.19963801 69.2659959,5.19963801 C69.769939,5.19963801 70.1593495,5.58733032 70.1593495,6.08904977 L70.1593495,7.36615385 C70.9381707,6.08904977 72.1751219,5.06280543 74.2138008,5.06280543 C77.0771138,5.06280543 78.7492886,6.97846154 78.7492886,9.78352941 L78.7492886,16.3286878 C78.7492886,16.8304072 78.359878,17.2180995 77.8788414,17.2180995 C77.3748983,17.2180995 76.9854877,16.8304072 76.9854877,16.3286878 L76.9854877,10.2168326 C76.9854877,8.02751131 75.7943495,6.65918552 73.7098577,6.65918552 C71.6711788,6.65918552 70.1593495,8.14153846 70.1593495,10.3536652 L70.1593495,16.3286878 C70.1593495,16.8304072 69.7928455,17.2180995 69.2889024,17.2180995 C68.7849593,17.2180995 68.3955487,16.8304072 68.3955487,16.3286878 Z M85.7684959,17.3321267 C84.2108536,17.3321267 82.4928658,16.761991 81.2101016,15.8497738 C81.049756,15.7357466 80.8894105,15.5076923 80.8894105,15.2112217 C80.8894105,14.800724 81.2330081,14.4586425 81.6682316,14.4586425 C81.8285772,14.4586425 81.9889227,14.5042534 82.1034552,14.5954751 C83.3174999,15.4164706 84.5773577,15.8497738 85.8601219,15.8497738 C87.2803251,15.8497738 88.3111178,15.12 88.3111178,13.9797285 L88.3111178,13.9341176 C88.3111178,12.7482353 86.9138211,12.2921267 85.3561788,11.8588235 C83.500752,11.3342986 81.4391666,10.6957466 81.4391666,8.52923077 L81.4391666,8.48361991 C81.4391666,6.45393665 83.1342479,5.10841629 85.4707113,5.10841629 C86.730569,5.10841629 88.1049593,5.4961086 89.2502845,6.1118552 C89.4793495,6.24868778 89.6855081,6.49954751 89.6855081,6.84162896 C89.6855081,7.2521267 89.3419105,7.59420814 88.9066869,7.59420814 C88.7463414,7.59420814 88.6089024,7.54859729 88.5172764,7.50298643 C87.5093902,6.93285068 86.4327845,6.59076923 85.4248983,6.59076923 C84.0276016,6.59076923 83.1342479,7.32054299 83.1342479,8.30117647 L83.1342479,8.34678733 C83.1342479,9.46425339 84.6002642,9.89755656 86.1808129,10.3764706 C88.0133333,10.9238009 89.9832926,11.6307692 89.9832926,13.7516742 L89.9832926,13.7972851 C89.9832926,16.0322172 88.1278658,17.3321267 85.7684959,17.3321267 Z M102.752032,6.08904977 L102.752032,16.3286878 C102.752032,16.8076018 102.385528,17.2180995 101.881585,17.2180995 C101.400549,17.2180995 101.011138,16.8304072 101.011138,16.3286878 L101.011138,15.0515837 C100.20941,16.3286878 98.9953658,17.3549321 96.9566869,17.3549321 C94.0933739,17.3549321 92.4211991,15.439276 92.4211991,12.6342081 L92.4211991,6.08904977 C92.4211991,5.58733032 92.7877032,5.19963801 93.2916463,5.19963801 C93.7726828,5.19963801 94.1849999,5.58733032 94.1849999,6.08904977 L94.1849999,12.200905 C94.1849999,14.3902262 95.3761381,15.758552 97.46063,15.758552 C99.4764024,15.758552 101.011138,14.2761991 101.011138,12.0640724 L101.011138,6.08904977 C101.011138,5.58733032 101.377642,5.19963801 101.881585,5.19963801 C102.362622,5.19963801 102.752032,5.58733032 102.752032,6.08904977 Z M106.060386,16.3286878 L106.060386,6.08904977 C106.060386,5.61013575 106.449797,5.19963801 106.930833,5.19963801 C107.434776,5.19963801 107.824187,5.58733032 107.824187,6.08904977 L107.824187,8.30117647 C108.694634,6.3399095 110.412622,5.15402715 111.901545,5.15402715 C112.428394,5.15402715 112.771992,5.54171946 112.771992,6.04343891 C112.771992,6.52235294 112.451301,6.86443439 111.993171,6.93285068 C109.70252,7.20651584 107.824187,8.91692308 107.824187,12.3149321 L107.824187,16.3286878 C107.824187,16.8076018 107.457683,17.2180995 106.95374,17.2180995 C106.449797,17.2180995 106.060386,16.8304072 106.060386,16.3286878 Z M115.232805,10.558914 L122.860671,10.558914 C122.677419,8.41520362 121.440467,6.54515837 119.081097,6.54515837 C117.019512,6.54515837 115.46187,8.25556561 115.232805,10.558914 Z M123.822744,15.598914 C122.700325,16.6707692 121.371748,17.3777376 119.355976,17.3777376 C116.103252,17.3777376 113.446097,14.8919457 113.446097,11.2430769 L113.446097,11.1974661 C113.446097,7.79945701 115.85128,5.06280543 119.12691,5.06280543 C122.631606,5.06280543 124.624471,7.91348416 124.624471,11.0378281 C124.624471,11.5167421 124.235061,11.8588235 123.799837,11.8588235 L115.232805,11.8588235 C115.484776,14.4130317 117.29439,15.8497738 119.401789,15.8497738 C120.867805,15.8497738 121.94441,15.279638 122.814858,14.481448 C122.952297,14.3674208 123.112642,14.2761991 123.318801,14.2761991 C123.754024,14.2761991 124.097622,14.6182805 124.097622,15.0287783 C124.097622,15.2340271 124.005996,15.439276 123.822744,15.598914 Z M127.085284,16.3286878 L127.085284,6.08904977 C127.085284,5.61013575 127.474695,5.19963801 127.955732,5.19963801 C128.459675,5.19963801 128.849085,5.58733032 128.849085,6.08904977 L128.849085,8.30117647 C129.719532,6.3399095 131.43752,5.15402715 132.926443,5.15402715 C133.453293,5.15402715 133.79689,5.54171946 133.79689,6.04343891 C133.79689,6.52235294 133.476199,6.86443439 133.018069,6.93285068 C130.727419,7.20651584 128.849085,8.91692308 128.849085,12.3149321 L128.849085,16.3286878 C128.849085,16.8076018 128.482581,17.2180995 127.978638,17.2180995 C127.474695,17.2180995 127.085284,16.8304072 127.085284,16.3286878 Z" id="cyberinsurer"></path>
        <path d="M63.0256097,1.91565611 L63.0256097,1.61918552 C63.0256097,1.04904977 63.4837398,0.684162896 64.0564024,0.684162896 C64.6519715,0.684162896 65.1101016,1.04904977 65.1101016,1.61918552 L65.1101016,1.91565611 C65.1101016,2.46298643 64.6519715,2.85067873 64.0564024,2.85067873 C63.4837398,2.85067873 63.0256097,2.46298643 63.0256097,1.91565611 Z" id="Path"></path>
    </g>
    <g id="Group-2">
        <path d="M10.6015086,24 L10.3908702,23.9021176 C10.285551,23.8550585 0,18.9308232 0,4.25223537 L0,3.86447043 L0.378020682,3.7816469 C3.94194827,2.99858808 6.04645225,1.88988233 7.58298445,1.08047082 C8.77722939,0.453646934 9.63858999,0 10.5921053,0 C11.5456205,0 12.4069811,0.453646934 13.6012261,1.08047082 C15.1377583,1.88988233 17.2422623,2.99858808 20.8061898,3.7816469 L21.1842105,3.86447043 L21.1842105,4.25223537 C21.1842105,18.4432942 10.9137052,23.8399996 10.8102665,23.8945882 L10.6015086,24 Z" id="Shape" fill="#50E3C2" fill-rule="nonzero"></path>
        <path d="M10.5921053,23.9956303 L10.5921053,-1.77635684e-15 C11.5456205,0 12.4069811,0.453646934 13.6012261,1.08047082 C15.1377583,1.88988233 17.2422623,2.99858808 20.8061898,3.7816469 L21.1842105,3.86447043 L21.1842105,4.25223537 C21.1842105,18.4432942 10.9137052,23.8399996 10.8102665,23.8945882 L10.6015086,24 L10.5921053,23.9956303 Z" id="Combined-Shape" fill="#3ACBAA" fill-rule="nonzero"></path>
        <rect id="Rectangle-3" fill="#FFFFFF" x="4.94298246" y="7.76470588" width="11.2982456" height="1.41176471"></rect>
    </g>
</svg>