<svg id="logo-29d756ab8245371e067324de6a92a1f6" xmlns="http://www.w3.org/2000/svg" width="176.246" height="26.333" viewBox="0 0 176.246 26.333">
  <g id="Group" transform="translate(29.726 1.924)">
    <path id="cyberinsurer" d="M7.12,19.034A6.76,6.76,0,0,1,.259,12.2v-.05A6.834,6.834,0,0,1,7.17,5.247,6.735,6.735,0,0,1,11.82,6.9,1.433,1.433,0,0,1,12.3,7.949,1.381,1.381,0,0,1,10.89,9.325a1.555,1.555,0,0,1-.9-.3A4.219,4.219,0,0,0,7.145,7.9,3.992,3.992,0,0,0,3.3,12.1v.05a4.006,4.006,0,0,0,3.971,4.229,4.44,4.44,0,0,0,2.966-1.176,1.283,1.283,0,0,1,2.136,1,1.178,1.178,0,0,1-.427.951A6.51,6.51,0,0,1,7.12,19.034Zm9.863,3.778a5.393,5.393,0,0,1-2.111-.375,1.291,1.291,0,0,1-.955-1.251,1.221,1.221,0,0,1,1.232-1.251,1.558,1.558,0,0,1,.553.1,3.451,3.451,0,0,0,1.056.175c.9,0,1.382-.375,1.885-1.4l.1-.275L13.816,7.574a2.037,2.037,0,0,1-.176-.726,1.457,1.457,0,0,1,1.508-1.476,1.525,1.525,0,0,1,1.483,1.151L20.2,15.306l3.318-8.783a1.559,1.559,0,0,1,1.458-1.151A1.434,1.434,0,0,1,26.433,6.8a2.7,2.7,0,0,1-.126.726L21.457,19.109C20.326,21.811,19.119,22.812,16.983,22.812Zm11.622-5.455V1.843a1.478,1.478,0,0,1,1.508-1.5,1.5,1.5,0,0,1,1.533,1.5v5.88a5.317,5.317,0,0,1,4.524-2.477c3.117,0,6.158,2.452,6.158,6.856v.05c0,4.379-3.016,6.856-6.158,6.856a5.427,5.427,0,0,1-4.524-2.327v.676a1.521,1.521,0,0,1-3.041,0Zm6.836-.976c2.086,0,3.8-1.626,3.8-4.229V12.1a3.919,3.919,0,0,0-3.8-4.229A3.991,3.991,0,0,0,31.571,12.1v.05A3.991,3.991,0,0,0,35.442,16.382Zm11.6-5.18H53.85c-.2-1.952-1.357-3.478-3.368-3.478C48.622,7.724,47.316,9.15,47.039,11.2Zm8.571,6.08a6.831,6.831,0,0,1-4.775,1.752,6.607,6.607,0,0,1-6.811-6.856v-.05a6.57,6.57,0,0,1,6.484-6.881,6.262,6.262,0,0,1,6.308,6.506A1.419,1.419,0,0,1,55.383,13.2H47.064a3.7,3.7,0,0,0,3.82,3.353,4.782,4.782,0,0,0,3.142-1.151,1.135,1.135,0,0,1,.779-.275,1.194,1.194,0,0,1,1.206,1.226A1.319,1.319,0,0,1,55.61,17.282Zm3.6.075V6.9a1.5,1.5,0,0,1,1.508-1.526A1.52,1.52,0,0,1,62.256,6.9V8.249c.7-1.651,2.011-2.9,3.343-2.9a1.408,1.408,0,0,1,1.508,1.5A1.423,1.423,0,0,1,65.9,8.3c-2.161.375-3.644,2.027-3.644,5.155v3.9a1.515,1.515,0,0,1-1.533,1.5A1.493,1.493,0,0,1,59.214,17.357Zm10.089.525V6.648a.974.974,0,0,1,.955-.976.964.964,0,0,1,.98.976V17.883a.943.943,0,0,1-.955.976A.964.964,0,0,1,69.3,17.883Zm5.716,0V6.648a.974.974,0,0,1,.955-.976.964.964,0,0,1,.98.976v1.4A4.924,4.924,0,0,1,81.4,5.522c3.142,0,4.976,2.1,4.976,5.18v7.181a.968.968,0,1,1-1.935,0V11.177c0-2.4-1.307-3.9-3.594-3.9a3.814,3.814,0,0,0-3.9,4.054v6.556a.943.943,0,0,1-.955.976A.964.964,0,0,1,75.02,17.883Zm19.062,1.1a9.018,9.018,0,0,1-5-1.626.869.869,0,0,1-.352-.7.841.841,0,0,1,.855-.826.776.776,0,0,1,.478.15,7.322,7.322,0,0,0,4.122,1.376c1.558,0,2.689-.8,2.689-2.052v-.05c0-1.3-1.533-1.8-3.242-2.277-2.036-.576-4.3-1.276-4.3-3.653v-.05c0-2.227,1.86-3.7,4.423-3.7a9.083,9.083,0,0,1,4.147,1.1.935.935,0,0,1,.478.8.841.841,0,0,1-.855.826.975.975,0,0,1-.427-.1,7.055,7.055,0,0,0-3.393-1c-1.533,0-2.513.8-2.513,1.877v.05c0,1.226,1.609,1.7,3.343,2.227,2.011.6,4.172,1.376,4.172,3.7v.05C98.706,17.558,96.67,18.984,94.082,18.984ZM112.716,6.648V17.883a.955.955,0,1,1-1.91,0v-1.4a4.954,4.954,0,0,1-4.449,2.527c-3.142,0-4.976-2.1-4.976-5.18V6.648a.943.943,0,0,1,.955-.976.979.979,0,0,1,.98.976v6.706c0,2.4,1.307,3.9,3.594,3.9a3.828,3.828,0,0,0,3.9-4.054V6.648a.943.943,0,0,1,.955-.976A.958.958,0,0,1,112.716,6.648Zm3.63,11.235V6.648a.974.974,0,0,1,.955-.976.964.964,0,0,1,.98.976V9.075a5.378,5.378,0,0,1,4.474-3.453.928.928,0,0,1,.955.976.958.958,0,0,1-.855.976c-2.513.3-4.574,2.177-4.574,5.905v4.4a.968.968,0,1,1-1.935,0Zm10.064-6.331h8.369c-.2-2.352-1.558-4.4-4.147-4.4C128.371,7.148,126.662,9.025,126.41,11.552Zm9.425,5.53a6.621,6.621,0,0,1-4.9,1.952A6.444,6.444,0,0,1,124.45,12.3v-.05c0-3.728,2.639-6.731,6.233-6.731,3.845,0,6.032,3.128,6.032,6.556a.9.9,0,0,1-.9.9h-9.4a4.529,4.529,0,0,0,4.574,4.379,5.323,5.323,0,0,0,3.745-1.5.85.85,0,0,1,.553-.225.841.841,0,0,1,.855.826A.829.829,0,0,1,135.836,17.082Zm3.58.8V6.648a.974.974,0,0,1,.955-.976.964.964,0,0,1,.98.976V9.075a5.378,5.378,0,0,1,4.474-3.453.928.928,0,0,1,.955.976.958.958,0,0,1-.855.976c-2.513.3-4.574,2.177-4.574,5.905v4.4a.968.968,0,1,1-1.935,0Z" transform="translate(-0.259 -0.342)" fill="#fff"/>
    <path id="Path" d="M63.026,2.035V1.71a1.15,1.15,0,0,1,2.287,0v.325a1.15,1.15,0,0,1-2.287,0Z" transform="translate(5.844 -0.309)" fill="#fff"/>
  </g>
  <g id="Group-2" transform="translate(0 0)">
    <path id="Shape" d="M11.632,26.333l-.231-.107C11.285,26.174,0,20.771,0,4.666V4.24l.415-.091A28.572,28.572,0,0,0,8.32,1.186,7.38,7.38,0,0,1,11.622,0a7.38,7.38,0,0,1,3.3,1.186,28.572,28.572,0,0,0,7.905,2.964l.415.091v.425c0,15.571-11.269,21.492-11.382,21.552Z" transform="translate(0 0)" fill="#50e3c2"/>
    <path id="Combined-Shape" d="M10.592,26.328V0a7.38,7.38,0,0,1,3.3,1.186A28.572,28.572,0,0,0,21.8,4.149l.415.091v.425c0,15.571-11.269,21.492-11.382,21.552l-.229.116Z" transform="translate(1.03 0)" fill="#3acbaa"/>
    <rect id="Rectangle-3" width="12.397" height="1.549" transform="translate(5.424 8.52)" fill="#fff"/>
  </g>
</svg>
