<svg width="180px" height="27px" viewBox="0 0 180 27" version="1.1" xmlns="http://www.w3.org/2000/svg" xmlns:xlink="http://www.w3.org/1999/xlink">
    <g id="Footer" transform="translate(-50.000000, -65.000000)">
        <g id="Group-3" transform="translate(50.000000, 65.000000)">
            <g id="Group" transform="translate(30.000000, 1.575109)" fill="#FFFFFF">
                <path d="M6.99146341,19.0067238 C2.97073171,19.0067238 0,15.8771026 0,12.0604914 L0,12.0096032 C0,8.19299203 2.97073171,4.98703863 7.04268293,4.98703863 C9.16829268,4.98703863 10.6280488,5.67402865 11.7804878,6.66634756 C11.9853659,6.84445608 12.2670732,7.2261172 12.2670732,7.73499869 C12.2670732,8.52376501 11.6268293,9.1344228 10.8329268,9.1344228 C10.4487805,9.1344228 10.1158537,8.98175835 9.91097561,8.8290939 C9.11707317,8.16754796 8.24634146,7.68411054 7.01707317,7.68411054 C4.76341463,7.68411054 3.09878049,9.61786021 3.09878049,11.9587151 L3.09878049,12.0096032 C3.09878049,14.4013462 4.76341463,16.3096518 7.14512195,16.3096518 C8.37439024,16.3096518 9.32195122,15.8262144 10.1670732,15.1137803 C10.3463415,14.9611159 10.6536585,14.7830074 11.0121951,14.7830074 C11.754878,14.7830074 12.3439024,15.3936652 12.3439024,16.1315433 C12.3439024,16.5386485 12.1902439,16.8694215 11.9085366,17.0984182 C10.704878,18.2434015 9.24512195,19.0067238 6.99146341,19.0067238 Z M17.0414634,22.848779 C16.1707317,22.848779 15.5304878,22.7215587 14.8902439,22.4671179 C14.4292683,22.3144535 13.9170732,21.9327923 13.9170732,21.1949142 C13.9170732,20.4315919 14.5060976,19.9227104 15.1719512,19.9227104 C15.4280488,19.9227104 15.5817073,19.9735986 15.7353658,20.0244867 C16.0939024,20.126263 16.3756097,20.2025953 16.8109756,20.2025953 C17.7329268,20.2025953 18.2195122,19.8209341 18.7317073,18.7777271 L18.8341463,18.4978423 L13.8146341,7.35333757 C13.7121951,7.1243409 13.6353658,6.819012 13.6353658,6.61545941 C13.6353658,5.75036087 14.3012195,5.114259 15.1719512,5.114259 C15.9658536,5.114259 16.4012195,5.57225235 16.6829268,6.28468644 L20.3195122,15.2155566 L23.7,6.28468644 C23.9560976,5.64858457 24.3914634,5.114259 25.1853658,5.114259 C26.004878,5.114259 26.6707317,5.75036087 26.6707317,6.56457126 C26.6707317,6.819012 26.5939024,7.14978497 26.5426829,7.30244942 L21.6,19.083056 C20.447561,21.831016 19.2182927,22.848779 17.0414634,22.848779 Z M28.8841463,17.3019708 L28.8841463,1.52664448 C28.8841463,0.661545941 29.55,0 30.4207317,0 C31.2914634,0 31.9829268,0.661545941 31.9829268,1.52664448 L31.9829268,7.50600202 C32.9817073,6.10657791 34.3902439,4.98703863 36.5926829,4.98703863 C39.7682927,4.98703863 42.8670731,7.48055794 42.8670731,11.9587151 L42.8670731,12.0096032 C42.8670731,16.4623163 39.7939024,18.9812797 36.5926829,18.9812797 C34.3390244,18.9812797 32.9304878,17.8617404 31.9829268,16.6149807 L31.9829268,17.3019708 C31.9829268,18.1416252 31.2914634,18.8286152 30.4207317,18.8286152 C29.5756097,18.8286152 28.8841463,18.1416252 28.8841463,17.3019708 Z M35.85,16.3096518 C37.9756097,16.3096518 39.7170731,14.655787 39.7170731,12.0096032 L39.7170731,11.9587151 C39.7170731,9.36341947 37.95,7.65866647 35.85,7.65866647 C33.75,7.65866647 31.9060975,9.38886354 31.9060975,11.9587151 L31.9060975,12.0096032 C31.9060975,14.5794548 33.75,16.3096518 35.85,16.3096518 Z M47.6670731,11.0427284 L54.607317,11.0427284 C54.402439,9.05809057 53.2243902,7.50600202 51.1756097,7.50600202 C49.2804878,7.50600202 47.9487805,8.95631427 47.6670731,11.0427284 Z M56.4,17.2256385 C55.1707317,18.3197337 53.6341463,19.0067238 51.5341463,19.0067238 C47.6158536,19.0067238 44.5939024,16.1824315 44.5939024,12.0350473 L44.5939024,11.9841592 C44.5939024,8.14210389 47.3341463,4.98703863 51.2012195,4.98703863 C55.5036585,4.98703863 57.6292683,8.49832093 57.6292683,11.602498 C57.6292683,12.4675966 56.9634146,13.0782544 56.1695122,13.0782544 L47.6926829,13.0782544 C48.0256097,15.2664448 49.5878048,16.4877604 51.5853658,16.4877604 C52.8914634,16.4877604 53.9158536,16.029767 54.7865853,15.3173329 C55.0170731,15.1392244 55.2219512,15.0374481 55.5804878,15.0374481 C56.2719512,15.0374481 56.8097561,15.5717737 56.8097561,16.2842078 C56.8097561,16.6658689 56.6304878,16.9966419 56.4,17.2256385 Z M60.0731707,17.3019708 L60.0731707,6.66634756 C60.0731707,5.80124902 60.7390243,5.114259 61.6097561,5.114259 C62.4804878,5.114259 63.1719512,5.80124902 63.1719512,6.66634756 L63.1719512,8.04032759 C63.8890243,6.36101866 65.2207317,5.08881493 66.5780487,5.08881493 C67.5512195,5.08881493 68.1146341,5.72491679 68.1146341,6.61545941 C68.1146341,7.4296698 67.5768292,7.96399536 66.8853658,8.09121574 C64.6829268,8.47287686 63.1719512,10.1521858 63.1719512,13.3326951 L63.1719512,17.3019708 C63.1719512,18.1416252 62.4804878,18.8286152 61.6097561,18.8286152 C60.7646341,18.8286152 60.0731707,18.1670693 60.0731707,17.3019708 Z M70.3536585,17.8362963 L70.3536585,6.41190681 C70.3536585,5.87758124 70.7890243,5.4195879 71.3268292,5.4195879 C71.8902438,5.4195879 72.3256097,5.85213717 72.3256097,6.41190681 L72.3256097,17.8362963 C72.3256097,18.396066 71.9158536,18.8286152 71.352439,18.8286152 C70.7890243,18.8286152 70.3536585,18.396066 70.3536585,17.8362963 Z M76.1780487,17.8362963 L76.1780487,6.41190681 C76.1780487,5.87758124 76.6134146,5.4195879 77.1512194,5.4195879 C77.7146341,5.4195879 78.1499999,5.85213717 78.1499999,6.41190681 L78.1499999,7.83677499 C79.0207316,6.41190681 80.4036585,5.26692345 82.6829268,5.26692345 C85.8841463,5.26692345 87.7536585,7.40422572 87.7536585,10.5338469 L87.7536585,17.8362963 C87.7536585,18.396066 87.3182926,18.8286152 86.7804877,18.8286152 C86.2170731,18.8286152 85.7817073,18.396066 85.7817073,17.8362963 L85.7817073,11.0172843 C85.7817073,8.57465315 84.4499999,7.04800868 82.1195121,7.04800868 C79.8402438,7.04800868 78.1499999,8.70187353 78.1499999,11.1699488 L78.1499999,17.8362963 C78.1499999,18.396066 77.7402438,18.8286152 77.1768292,18.8286152 C76.6134146,18.8286152 76.1780487,18.396066 76.1780487,17.8362963 Z M95.6012194,18.9558356 C93.859756,18.9558356 91.9390243,18.3197337 90.504878,17.3019708 C90.3256097,17.1747504 90.1463414,16.9203096 90.1463414,16.5895367 C90.1463414,16.1315433 90.5304877,15.7498822 91.0170731,15.7498822 C91.1963414,15.7498822 91.3756097,15.8007704 91.5036585,15.9025467 C92.8609755,16.8185333 94.2695121,17.3019708 95.7036585,17.3019708 C97.2914633,17.3019708 98.4439024,16.4877604 98.4439024,15.2155566 L98.4439024,15.1646685 C98.4439024,13.8415766 96.8817072,13.3326951 95.1402438,12.8492577 C93.0658536,12.264044 90.7609755,11.5516099 90.7609755,9.1344228 L90.7609755,9.08353465 C90.7609755,6.819012 92.6560975,5.3178116 95.2682926,5.3178116 C96.6768292,5.3178116 98.2134146,5.75036087 99.4939024,6.43735088 C99.7499999,6.59001533 99.9804877,6.86990015 99.9804877,7.25156127 C99.9804877,7.70955462 99.5963414,8.09121574 99.109756,8.09121574 C98.9304877,8.09121574 98.7768292,8.04032759 98.6743902,7.98943944 C97.5475609,7.35333757 96.3439024,6.97167645 95.2170731,6.97167645 C93.654878,6.97167645 92.6560975,7.78588684 92.6560975,8.87998205 L92.6560975,8.9308702 C92.6560975,10.1776299 94.2951219,10.6610673 96.062195,11.1953928 C98.1109755,11.8060506 100.313415,12.5948169 100.313415,14.9611159 L100.313415,15.012004 C100.313415,17.5055234 98.2390243,18.9558356 95.6012194,18.9558356 Z M114.589024,6.41190681 L114.589024,17.8362963 C114.589024,18.3706219 114.179268,18.8286152 113.615854,18.8286152 C113.078049,18.8286152 112.642683,18.396066 112.642683,17.8362963 L112.642683,16.4114281 C111.746341,17.8362963 110.389024,18.9812797 108.109756,18.9812797 C104.908536,18.9812797 103.039024,16.8439774 103.039024,13.7143562 L103.039024,6.41190681 C103.039024,5.85213717 103.44878,5.4195879 104.012195,5.4195879 C104.55,5.4195879 105.010976,5.85213717 105.010976,6.41190681 L105.010976,13.2309188 C105.010976,15.67355 106.342683,17.2001945 108.673171,17.2001945 C110.926829,17.2001945 112.642683,15.5463296 112.642683,13.0782544 L112.642683,6.41190681 C112.642683,5.85213717 113.052439,5.4195879 113.615854,5.4195879 C114.153658,5.4195879 114.589024,5.85213717 114.589024,6.41190681 Z M118.287805,17.8362963 L118.287805,6.41190681 C118.287805,5.87758124 118.723171,5.4195879 119.260976,5.4195879 C119.82439,5.4195879 120.259756,5.85213717 120.259756,6.41190681 L120.259756,8.87998205 C121.232927,6.69179163 123.153658,5.36869975 124.818293,5.36869975 C125.407317,5.36869975 125.791463,5.80124902 125.791463,6.36101866 C125.791463,6.89534423 125.432927,7.27700535 124.920732,7.35333757 C122.359756,7.65866647 120.259756,9.56697207 120.259756,13.3581392 L120.259756,17.8362963 C120.259756,18.3706219 119.85,18.8286152 119.286585,18.8286152 C118.723171,18.8286152 118.287805,18.396066 118.287805,17.8362963 Z M128.542683,11.3989454 L137.070732,11.3989454 C136.865854,9.00720242 135.482927,6.9207883 132.845122,6.9207883 C130.540244,6.9207883 128.79878,8.8290939 128.542683,11.3989454 Z M138.146341,17.0220859 C136.891463,18.2179574 135.406097,19.0067238 133.152439,19.0067238 C129.515854,19.0067238 126.545122,16.2333196 126.545122,12.1622677 L126.545122,12.1113795 C126.545122,8.32021241 129.234146,5.26692345 132.896341,5.26692345 C136.814634,5.26692345 139.042683,8.44743278 139.042683,11.933271 C139.042683,12.4675966 138.607317,12.8492577 138.120732,12.8492577 L128.542683,12.8492577 C128.82439,15.6989941 130.847561,17.3019708 133.203658,17.3019708 C134.842683,17.3019708 136.046341,16.6658689 137.019512,15.7753263 C137.173171,15.6481059 137.352439,15.5463296 137.582927,15.5463296 C138.069512,15.5463296 138.453658,15.9279907 138.453658,16.3859841 C138.453658,16.6149807 138.351219,16.8439774 138.146341,17.0220859 Z M141.793902,17.8362963 L141.793902,6.41190681 C141.793902,5.87758124 142.229268,5.4195879 142.767073,5.4195879 C143.330488,5.4195879 143.765854,5.85213717 143.765854,6.41190681 L143.765854,8.87998205 C144.739024,6.69179163 146.659756,5.36869975 148.32439,5.36869975 C148.913415,5.36869975 149.297561,5.80124902 149.297561,6.36101866 C149.297561,6.89534423 148.939024,7.27700535 148.426829,7.35333757 C145.865854,7.65866647 143.765854,9.56697207 143.765854,13.3581392 L143.765854,17.8362963 C143.765854,18.3706219 143.356097,18.8286152 142.792683,18.8286152 C142.229268,18.8286152 141.793902,18.396066 141.793902,17.8362963 Z" id="cyberinsurer"></path>
                <path d="M70.4634146,2.13730227 L70.4634146,1.8065293 C70.4634146,1.17042743 70.9756097,0.763322239 71.6158536,0.763322239 C72.2817073,0.763322239 72.7939024,1.17042743 72.7939024,1.8065293 L72.7939024,2.13730227 C72.7939024,2.74796006 72.2817073,3.18050933 71.6158536,3.18050933 C70.9756097,3.18050933 70.4634146,2.74796006 70.4634146,2.13730227 Z" id="Path"></path>
            </g>
            <g id="Group-2">
                <path d="M11.8526184,26.7768595 L11.6171219,26.6676519 C11.4993737,26.6151479 0,21.1211664 0,4.74422955 L0,4.31159924 L0.422631818,4.21919282 C4.40714713,3.34553216 6.76000873,2.10854641 8.47787081,1.20548397 C9.8130515,0.506135009 10.7760633,0 11.8421053,0 C12.9081472,0 13.871159,0.506135009 15.2063397,1.20548397 C16.9242018,2.10854641 19.2770634,3.34553216 23.2615787,4.21919282 L23.6842105,4.31159924 L23.6842105,4.74422955 C23.6842105,20.577229 12.201658,26.5983467 12.0860123,26.6592513 L11.8526184,26.7768595 Z" id="Shape" fill="#FFFFFF" fill-rule="nonzero"></path>
                <path d="M11.8421053,26.7719842 L11.8421053,-5.32907052e-15 C12.9081472,1.64462049e-15 13.871159,0.506135009 15.2063397,1.20548397 C16.9242018,2.10854641 19.2770634,3.34553216 23.2615787,4.21919282 L23.6842105,4.31159924 L23.6842105,4.74422955 C23.6842105,20.577229 12.201658,26.5983467 12.0860123,26.6592513 L11.8526184,26.7768595 L11.8421053,26.7719842 Z" id="Combined-Shape" fill="#E3E3E3" fill-rule="nonzero"></path>
                <polygon id="Rectangle-3" fill="#022432" points="5.52631579 8.6631016 18.1578947 8.6631016 18.1578947 10.238211 5.52631579 10.238211"></polygon>
            </g>
        </g>
    </g>
</svg>