<svg id="logo-29d756ab8245371e067324de6a92a1f6" xmlns="http://www.w3.org/2000/svg" width="334.646" height="50" viewBox="0 0 334.646 50">
  <g id="Group" transform="translate(56.441 3.654)">
    <path id="cyberinsurer" d="M13.287,35.833A12.836,12.836,0,0,1,.259,22.862v-.1A12.976,12.976,0,0,1,13.382,9.654a12.788,12.788,0,0,1,8.829,3.136,2.722,2.722,0,0,1,.907,2A2.622,2.622,0,0,1,20.445,17.4a2.952,2.952,0,0,1-1.718-.57,8.011,8.011,0,0,0-5.393-2.138c-4.2,0-7.3,3.611-7.3,7.982v.1c0,4.466,3.1,8.029,7.54,8.029A8.43,8.43,0,0,0,19.2,28.564a2.436,2.436,0,0,1,4.056,1.9,2.236,2.236,0,0,1-.811,1.805A12.361,12.361,0,0,1,13.287,35.833Zm18.727,7.174a10.24,10.24,0,0,1-4.009-.713,2.451,2.451,0,0,1-1.813-2.376,2.318,2.318,0,0,1,2.338-2.376,2.958,2.958,0,0,1,1.05.19,6.553,6.553,0,0,0,2,.333c1.718,0,2.625-.713,3.579-2.661l.191-.523L26,14.073a3.867,3.867,0,0,1-.334-1.378,2.767,2.767,0,0,1,2.863-2.8,2.9,2.9,0,0,1,2.816,2.186l6.777,16.676,6.3-16.676A2.96,2.96,0,0,1,47.19,9.892,2.724,2.724,0,0,1,49.957,12.6a5.134,5.134,0,0,1-.239,1.378l-9.21,22C38.361,41.107,36.07,43.007,32.014,43.007ZM54.082,32.65V3.193A2.806,2.806,0,0,1,56.945.342a2.846,2.846,0,0,1,2.911,2.851V14.358a10.1,10.1,0,0,1,8.59-4.7c5.918,0,11.692,4.656,11.692,13.018v.1c0,8.314-5.727,13.018-11.692,13.018a10.3,10.3,0,0,1-8.59-4.419V32.65a2.887,2.887,0,0,1-5.774,0ZM67.062,30.8c3.961,0,7.206-3.088,7.206-8.029v-.1c0-4.846-3.293-8.029-7.206-8.029s-7.349,3.231-7.349,8.029v.1C59.713,27.566,63.149,30.8,67.062,30.8Zm22.02-9.835h12.933c-.382-3.706-2.577-6.6-6.395-6.6C92.089,14.358,89.608,17.066,89.083,20.962Zm16.273,11.545a12.97,12.97,0,0,1-9.067,3.326A12.544,12.544,0,0,1,83.356,22.815v-.1c0-7.174,5.106-13.066,12.312-13.066,8.017,0,11.978,6.557,11.978,12.353a2.694,2.694,0,0,1-2.72,2.756H89.13a7.024,7.024,0,0,0,7.254,6.367,9.079,9.079,0,0,0,5.965-2.186,2.155,2.155,0,0,1,1.479-.523,2.267,2.267,0,0,1,2.291,2.328A2.5,2.5,0,0,1,105.356,32.507Zm6.845.143V12.79a2.846,2.846,0,0,1,2.863-2.9,2.886,2.886,0,0,1,2.911,2.9v2.566c1.336-3.136,3.818-5.511,6.347-5.511a2.674,2.674,0,0,1,2.863,2.851,2.7,2.7,0,0,1-2.291,2.756c-4.1.713-6.92,3.848-6.92,9.787V32.65a2.876,2.876,0,0,1-2.911,2.851A2.835,2.835,0,0,1,112.2,32.65Zm19.157,1V12.315a1.85,1.85,0,0,1,1.813-1.853,1.83,1.83,0,0,1,1.861,1.853V33.648a1.79,1.79,0,0,1-1.813,1.853A1.83,1.83,0,0,1,131.357,33.648Zm10.853,0V12.315a1.85,1.85,0,0,1,1.813-1.853,1.83,1.83,0,0,1,1.861,1.853v2.661a9.35,9.35,0,0,1,8.447-4.8c5.965,0,9.449,3.991,9.449,9.835V33.648a1.837,1.837,0,1,1-3.675,0V20.914c0-4.561-2.482-7.412-6.824-7.412-4.247,0-7.4,3.088-7.4,7.7V33.648a1.79,1.79,0,0,1-1.813,1.853A1.83,1.83,0,0,1,142.211,33.648Zm36.194,2.09a17.123,17.123,0,0,1-9.5-3.088,1.65,1.65,0,0,1-.668-1.33,1.6,1.6,0,0,1,1.623-1.568,1.473,1.473,0,0,1,.907.285A13.9,13.9,0,0,0,178.6,32.65c2.959,0,5.106-1.52,5.106-3.9v-.1c0-2.471-2.911-3.421-6.156-4.324-3.865-1.093-8.16-2.423-8.16-6.937v-.1c0-4.229,3.531-7.032,8.4-7.032a17.247,17.247,0,0,1,7.874,2.09,1.775,1.775,0,0,1,.907,1.52,1.6,1.6,0,0,1-1.623,1.568,1.852,1.852,0,0,1-.811-.19,13.4,13.4,0,0,0-6.442-1.9c-2.911,0-4.772,1.52-4.772,3.563v.1c0,2.328,3.054,3.231,6.347,4.229,3.818,1.14,7.922,2.613,7.922,7.032v.1C187.185,33.03,183.32,35.738,178.4,35.738Zm35.382-23.423V33.648a1.814,1.814,0,1,1-3.627,0V30.987a9.406,9.406,0,0,1-8.447,4.8c-5.965,0-9.449-3.991-9.449-9.835V12.315a1.79,1.79,0,0,1,1.813-1.853,1.859,1.859,0,0,1,1.861,1.853V25.048c0,4.561,2.482,7.412,6.824,7.412,4.2,0,7.4-3.088,7.4-7.7V12.315a1.79,1.79,0,0,1,1.813-1.853A1.819,1.819,0,0,1,213.787,12.315Zm6.892,21.333V12.315a1.85,1.85,0,0,1,1.813-1.853,1.83,1.83,0,0,1,1.861,1.853v4.609c1.813-4.086,5.393-6.557,8.494-6.557a1.763,1.763,0,0,1,1.813,1.853,1.818,1.818,0,0,1-1.623,1.853c-4.772.57-8.685,4.133-8.685,11.213v8.362a1.837,1.837,0,1,1-3.675,0Zm19.109-12.02H255.68c-.382-4.466-2.959-8.362-7.874-8.362C243.511,13.265,240.265,16.829,239.788,21.627Zm17.9,10.5a12.571,12.571,0,0,1-9.306,3.706c-6.777,0-12.312-5.179-12.312-12.781v-.1c0-7.079,5.011-12.781,11.835-12.781,7.3,0,11.453,5.939,11.453,12.448a1.707,1.707,0,0,1-1.718,1.71H239.788c.525,5.321,4.295,8.314,8.685,8.314a10.107,10.107,0,0,0,7.111-2.851,1.613,1.613,0,0,1,1.05-.428,1.6,1.6,0,0,1,1.623,1.568A1.574,1.574,0,0,1,257.684,32.127Zm6.8,1.52V12.315a1.85,1.85,0,0,1,1.813-1.853,1.83,1.83,0,0,1,1.861,1.853v4.609c1.813-4.086,5.393-6.557,8.494-6.557a1.763,1.763,0,0,1,1.813,1.853,1.818,1.818,0,0,1-1.623,1.853c-4.772.57-8.685,4.133-8.685,11.213v8.362a1.837,1.837,0,1,1-3.675,0Z" transform="translate(-0.259 -0.342)" fill="#146586"/>
    <path id="Path" d="M63.026,3.25V2.632a2.184,2.184,0,0,1,4.343,0V3.25a2.184,2.184,0,0,1-4.343,0Z" transform="translate(67.739 0.029)" fill="#146586"/>
  </g>
  <g id="Group-2" transform="translate(0 0)">
    <path id="Shape" d="M22.086,50l-.439-.2C21.428,49.7,0,39.439,0,8.859V8.051l.788-.173A54.25,54.25,0,0,0,15.8,2.251C18.286.945,20.08,0,22.067,0s3.781.945,6.269,2.251a54.25,54.25,0,0,0,15.01,5.627l.788.173v.808c0,29.565-21.4,40.808-21.612,40.922Z" transform="translate(0 0)" fill="#50e3c2"/>
    <path id="Combined-Shape" d="M10.592,49.991V0c1.986,0,3.781.945,6.269,2.251a54.25,54.25,0,0,0,15.01,5.627l.788.173v.808c0,29.565-21.4,40.808-21.612,40.922l-.435.22Z" transform="translate(11.475 0)" fill="#3acbaa"/>
    <rect id="Rectangle-3" width="23.538" height="2.941" transform="translate(10.298 16.176)" fill="#fff"/>
  </g>
</svg>
