<svg xmlns="http://www.w3.org/2000/svg" width="48" height="41" viewBox="0 0 48 41">
  <path id="icons8-safe" d="M5,5A4.013,4.013,0,0,0,1,9V41a4.013,4.013,0,0,0,4,4H6v1h5V45H39v1h5V45h1a4.013,4.013,0,0,0,4-4V9a4.013,4.013,0,0,0-4-4ZM5,7H45a1.984,1.984,0,0,1,2,2V41a1.984,1.984,0,0,1-2,2H5a1.984,1.984,0,0,1-2-2V9A1.984,1.984,0,0,1,5,7Zm1.813,3A1,1,0,0,0,6,11V22.688a1.025,1.025,0,0,0,0,.594v3.625a1.024,1.024,0,0,0,0,.219V39a1,1,0,0,0,1,1H43a1,1,0,0,0,1-1V11a1,1,0,0,0-1-1H6.813ZM8,12H42V38H8V27.438l1.719-1.719a1,1,0,0,0,0-1.437L8,22.563Zm16.906,1.969a1.169,1.169,0,0,0-.125.031.879.879,0,0,0-.094.031,10.943,10.943,0,0,0-7.156,2.938,1,1,0,0,0-.562.563A10.944,10.944,0,0,0,14.031,24.5a1.014,1.014,0,0,0,0,1,10.978,10.978,0,0,0,2.844,6.906,1,1,0,0,0,.719.719,10.963,10.963,0,0,0,7.125,2.844.879.879,0,0,0,.094.031h.406a.879.879,0,0,0,.094-.031,10.97,10.97,0,0,0,7.094-2.844,1.009,1.009,0,0,0,.719-.75,10.929,10.929,0,0,0,2.844-7.094A.466.466,0,0,0,36,25.219v-.031A.753.753,0,0,0,36,25v-.125a1.044,1.044,0,0,0-.031-.187,10.945,10.945,0,0,0-3-7.25l-.031-.031c-.016-.016-.016-.047-.031-.062a1.026,1.026,0,0,0-.312-.281,10.944,10.944,0,0,0-7.219-3.031A1.006,1.006,0,0,0,24.906,13.969ZM24,16.031a1,1,0,0,0,2,0,8.918,8.918,0,0,1,4.625,1.938,1,1,0,1,0,1.406,1.406A8.918,8.918,0,0,1,33.969,24h-.156a1,1,0,0,0,.156,2,8.918,8.918,0,0,1-1.937,4.625,1,1,0,0,0-.781-.281h-.094a1,1,0,0,0-.531,1.688A8.918,8.918,0,0,1,26,33.969a1.011,1.011,0,0,0-.324-.742,1,1,0,0,0-.77-.258,1.169,1.169,0,0,0-.125.031,1,1,0,0,0-.781.969,8.918,8.918,0,0,1-4.625-1.937,1,1,0,0,0-.75-1.687h-.094a1,1,0,0,0-.562.281A8.918,8.918,0,0,1,16.031,26a1,1,0,0,0,0-2,8.918,8.918,0,0,1,1.938-4.625,1,1,0,1,0,1.406-1.406A8.918,8.918,0,0,1,24,16.031ZM25,20a5,5,0,1,0,5,5A5.015,5.015,0,0,0,25,20Zm0,2a3,3,0,1,1-3,3A2.986,2.986,0,0,1,25,22Z" transform="translate(-1 -5)" fill="#46e0b6"/>
</svg>
